HIERARCHY
ROOT Hips
{
	OFFSET 0.000000 0.000000 0.000000
	CHANNELS 6 Xposition Yposition Zposition Zrotation Yrotation Xrotation 
	JOINT LHipJoint
	{
		OFFSET 0.000000 0.000000 0.000000
		CHANNELS 3 Zrotation Yrotation Xrotation
		JOINT LeftUpLeg
		{
			OFFSET 1.363060 -1.794630 0.839290
			CHANNELS 3 Zrotation Yrotation Xrotation
			JOINT LeftLeg
			{
				OFFSET 2.448110 -6.726130 0.000000
				CHANNELS 3 Zrotation Yrotation Xrotation
				JOINT LeftFoot
				{
					OFFSET 2.562200 -7.039590 0.000000
					CHANNELS 3 Zrotation Yrotation Xrotation
					JOINT LeftToeBase
					{
						OFFSET 0.157640 -0.433110 2.322550
						CHANNELS 3 Zrotation Yrotation Xrotation
						End Site
						{
							OFFSET 0.000000 0.000000 0.000000
						}
					}
				}
			}
		}
	}
	JOINT RHipJoint
	{
		OFFSET 0.000000 0.000000 0.000000
		CHANNELS 3 Zrotation Yrotation Xrotation
		JOINT RightUpLeg
		{
			OFFSET -1.305520 -1.794630 0.839290
			CHANNELS 3 Zrotation Yrotation Xrotation
			JOINT RightLeg
			{
				OFFSET -2.542530 -6.985550 0.000000
				CHANNELS 3 Zrotation Yrotation Xrotation
				JOINT RightFoot
				{
					OFFSET -2.568260 -7.056230 0.000000
					CHANNELS 3 Zrotation Yrotation Xrotation
					JOINT RightToeBase
					{
						OFFSET -0.164730 -0.452590 2.363150
						CHANNELS 3 Zrotation Yrotation Xrotation
						End Site
						{
							OFFSET 0.000000 0.000000 0.000000
						}
					}
				}
			}
		}
	}
	JOINT LowerBack
	{
		OFFSET 0.000000 0.000000 0.000000
		CHANNELS 3 Zrotation Yrotation Xrotation
		JOINT Spine
		{
			OFFSET 0.028270 2.035590 -0.193380
			CHANNELS 3 Zrotation Yrotation Xrotation
			JOINT Spine1
			{
				OFFSET 0.056720 2.048850 -0.042750
				CHANNELS 3 Zrotation Yrotation Xrotation
				JOINT Neck
				{
					OFFSET 0.000000 0.000000 0.000000
					CHANNELS 3 Zrotation Yrotation Xrotation
					JOINT Neck1
					{
						OFFSET -0.054170 1.746240 0.172020
						CHANNELS 3 Zrotation Yrotation Xrotation
						JOINT Head
						{
							OFFSET 0.104070 1.761360 -0.123970
							CHANNELS 3 Zrotation Yrotation Xrotation
							End Site
							{
								OFFSET 0.000000 0.000000 0.000000
							}
						}
					}
				}
				JOINT LeftShoulder
				{
					OFFSET 0.000000 0.000000 0.000000
					CHANNELS 3 Zrotation Yrotation Xrotation
					JOINT LeftArm
					{
						OFFSET 3.362410 1.200890 -0.311210
						CHANNELS 3 Zrotation Yrotation Xrotation
						JOINT LeftForeArm
						{
							OFFSET 4.983000 -0.000000 -0.000000
							CHANNELS 3 Zrotation Yrotation Xrotation
							JOINT LeftHand
							{
								OFFSET 3.483560 -0.000000 -0.000000
								CHANNELS 3 Zrotation Yrotation Xrotation
								JOINT LeftFingerBase
								{
									OFFSET 0.000000 0.000000 0.000000
									CHANNELS 3 Zrotation Yrotation Xrotation
									JOINT LeftHandIndex1
									{
										OFFSET 0.715260 -0.000000 -0.000000
										CHANNELS 3 Zrotation Yrotation Xrotation
										End Site
										{
											OFFSET 0.000000 0.000000 0.000000
										}
									}
								}
								JOINT LThumb
								{
									OFFSET 0.000000 0.000000 0.000000
									CHANNELS 3 Zrotation Yrotation Xrotation
									End Site
									{
										OFFSET 0.000000 0.000000 0.000000
									}
								}
							}
						}
					}
				}
				JOINT RightShoulder
				{
					OFFSET 0.000000 0.000000 0.000000
					CHANNELS 3 Zrotation Yrotation Xrotation
					JOINT RightArm
					{
						OFFSET -3.136600 1.374050 -0.404650
						CHANNELS 3 Zrotation Yrotation Xrotation
						JOINT RightForeArm
						{
							OFFSET -5.241900 -0.000000 -0.000000
							CHANNELS 3 Zrotation Yrotation Xrotation
							JOINT RightHand
							{
								OFFSET -3.444170 -0.000000 -0.000000
								CHANNELS 3 Zrotation Yrotation Xrotation
								JOINT RightFingerBase
								{
									OFFSET 0.000000 0.000000 0.000000
									CHANNELS 3 Zrotation Yrotation Xrotation
									JOINT RightHandIndex1
									{
										OFFSET -0.622530 -0.000000 -0.000000
										CHANNELS 3 Zrotation Yrotation Xrotation
										End Site
										{
											OFFSET 0.000000 0.000000 0.000000
										}
									}
								}
								JOINT RThumb
								{
									OFFSET 0.000000 0.000000 0.000000
									CHANNELS 3 Zrotation Yrotation Xrotation
									End Site
									{
										OFFSET 0.000000 0.000000 0.000000
									}
								}
							}
						}
					}
				}
			}
		}
	}
}
MOTION
Frames: 7
Frame Time: 0.033333
-0.135941 17.431284 -0.135941 -2.656290 -2.473119 1.867892 2.424515 18.018816 0.390769 -22.521370 -0.485699 -3.014676 -0.414548 -3.355973 -10.457425 0.156033 -3.037353 -9.499173 0.000000 0.000000 0.000000 -5.611263 -30.810959 -14.811447 37.761830 -13.905525 2.852538 0.625700 -16.332399 10.826296 3.377453 -4.889384 -24.300122 0.000000 0.000000 0.000000 0.402563 4.195898 17.915219 3.779012 3.469062 -0.240881 -4.824169 4.543569 -14.368311 3.943789 0.106039 0.352734 2.193047 -0.091924 4.868297 0.000000 0.000000 0.000000 -1.440949 12.665420 7.246465 -67.046051 -7.875220 4.265707 -43.409582 -10.454246 0.023856 -1.922024 -5.219914 0.011670 -1.916093 -5.223461 0.000000 0.000000 0.000000 0.000000 0.000000 0.000000 0.000000 -6.075879 -14.588290 4.214093 72.421845 -2.980046 19.140847 176.785488 80.324062 -179.777746 -3.238032 9.910773 0.108368 -3.271439 9.903668 0.000000 0.000000 0.000000 0.000000 0.000000 0.000000 0.000000 
-0.108399 17.502041 0.122074 -2.669568 -2.505609 2.069125 2.328935 18.208921 0.241691 -22.539646 -0.709846 -3.451351 -0.031630 -2.393474 -7.718846 0.245605 -3.887712 -11.549285 0.000000 0.000000 0.000000 -5.579069 -31.089758 -15.009110 37.823969 -14.851977 2.782045 2.627353 -16.731807 8.912043 3.310750 -6.182155 -22.809127 0.000000 0.000000 0.000000 0.500868 4.278223 18.431024 3.417169 3.502237 -1.094318 -4.718084 4.576502 -14.106690 3.536307 0.193482 1.363524 2.582640 -0.102829 5.145823 0.000000 0.000000 0.000000 -1.133861 12.816109 7.175807 -67.039721 -8.006513 4.612119 -43.781516 -10.967790 0.031646 -1.949332 -5.321789 0.015549 -1.943329 -5.325467 0.000000 0.000000 0.000000 0.000000 0.000000 0.000000 0.000000 -5.894534 -15.006060 3.899853 72.230319 -3.048176 19.459978 176.896477 80.224235 -179.770591 -3.193652 9.932545 0.111978 -3.226369 9.925752 0.000000 0.000000 0.000000 0.000000 0.000000 0.000000 0.000000 
-0.082723 17.560364 0.378539 -2.650181 -2.611268 2.229041 2.186209 18.435296 0.158335 -22.519505 -0.942082 -3.906369 0.393232 -1.451134 -5.038738 0.338430 -4.677565 -13.534125 0.000000 0.000000 0.000000 -5.414564 -31.505716 -15.239601 37.952334 -15.619647 2.587840 3.453824 -17.312286 7.879411 3.262636 -7.551199 -21.312869 0.000000 0.000000 0.000000 0.533961 4.387199 18.886016 3.090862 3.539938 -1.685800 -4.616481 4.620851 -13.988012 3.156357 0.266674 2.255375 2.921452 -0.119061 5.430012 0.000000 0.000000 0.000000 -0.838442 13.018427 7.082667 -67.038928 -8.138117 4.979919 -44.160492 -11.489300 0.040025 -1.977797 -5.426646 0.019723 -1.971737 -5.430461 0.000000 0.000000 0.000000 0.000000 0.000000 0.000000 0.000000 -5.731478 -15.437472 3.569238 72.025771 -3.105861 19.804259 176.997917 80.114711 -179.762469 -3.147222 9.954756 0.116079 -3.179129 9.948302 0.000000 0.000000 0.000000 0.000000 0.000000 0.000000 0.000000 
-0.058586 17.606373 0.633143 -2.618624 -2.786478 2.338001 2.022713 18.699953 0.141930 -22.463138 -1.179281 -4.366493 0.851714 -0.534305 -2.416516 0.432420 -5.413419 -15.462998 0.000000 0.000000 0.000000 -5.186959 -32.058789 -15.529355 38.209269 -16.203657 2.367257 3.063195 -17.996890 7.705316 3.242679 -8.777738 -20.009411 0.000000 0.000000 0.000000 0.521022 4.520287 19.315206 2.801960 3.587526 -2.081584 -4.520391 4.679797 -13.977852 2.801079 0.328110 3.051767 3.213767 -0.139085 5.714855 0.000000 0.000000 0.000000 -0.555175 13.263066 6.973068 -67.041656 -8.267384 5.367927 -44.544181 -12.021927 0.048959 -2.007116 -5.535030 0.024172 -2.001014 -5.538988 0.000000 0.000000 0.000000 0.000000 0.000000 0.000000 0.000000 -5.582611 -15.874711 3.228674 71.809441 -3.154039 20.166824 177.090319 79.997492 -179.753604 -3.099445 9.977358 0.120558 -3.130448 9.971261 0.000000 0.000000 0.000000 0.000000 0.000000 0.000000 0.000000 
-0.035431 17.640450 0.885214 -2.587700 -3.010741 2.403284 1.851294 18.988322 0.178558 -22.371751 -1.420284 -4.823589 1.332642 0.352765 0.147926 0.525027 -6.099625 -17.339403 0.000000 0.000000 0.000000 -4.937364 -32.707042 -15.865854 38.635040 -16.494851 2.169915 1.479962 -18.645063 8.351492 3.278195 -9.732885 -18.966255 0.000000 0.000000 0.000000 0.478358 4.670301 19.732141 2.549024 3.643858 -2.337496 -4.429510 4.750787 -14.046445 2.468014 0.380063 3.772395 3.464259 -0.161600 5.995571 0.000000 0.000000 0.000000 -0.283842 13.539069 6.852683 -67.046705 -8.392780 5.774841 -44.930500 -12.568674 0.058409 -2.037027 -5.647465 0.028879 -2.030896 -5.651572 0.000000 0.000000 0.000000 0.000000 0.000000 0.000000 0.000000 -5.445351 -16.313332 2.883350 71.583244 -3.194009 20.541277 177.174113 79.874216 -179.744202 -3.050978 10.000327 0.125309 -3.081006 9.994600 0.000000 0.000000 0.000000 0.000000 0.000000 0.000000 0.000000 
-0.010235 17.664837 1.136794 -2.490330 -3.420674 2.264296 1.660677 19.488914 0.458170 -22.257508 -1.741490 -5.401854 1.831331 1.277815 2.910763 0.608132 -6.778469 -19.238276 0.000000 0.000000 0.000000 -4.670600 -33.824588 -16.159858 39.516477 -16.379503 1.936737 -2.173031 -19.237458 10.090275 3.454436 -10.670822 -17.868722 0.000000 0.000000 0.000000 0.411369 4.809545 19.743772 2.487267 3.784790 -2.223723 -4.429986 4.877357 -13.685811 2.463905 0.362891 3.326310 3.396376 -0.164410 5.954395 0.000000 0.000000 0.000000 0.203889 13.096010 6.947088 -67.019458 -8.387489 6.380753 -45.879193 -15.052012 0.076268 -2.092663 -6.043166 0.037746 -2.085982 -6.047666 0.000000 0.000000 0.000000 0.000000 0.000000 0.000000 0.000000 -5.876838 -15.992355 2.674306 72.396601 -2.493563 19.620454 175.741036 78.620415 -179.762295 -3.192421 9.581462 0.116388 -3.221492 9.575299 0.000000 0.000000 0.000000 0.000000 0.000000 0.000000 0.000000 
0.015034 17.678183 1.385257 -2.383395 -3.764647 2.154290 1.424159 19.913761 0.712645 -22.096480 -2.079857 -5.985259 2.338910 2.168269 5.630588 0.681233 -7.407021 -21.074543 0.000000 0.000000 0.000000 -4.358705 -34.765414 -16.324922 40.521821 -15.470774 1.637837 -6.369890 -19.321788 12.419928 3.759213 -11.256253 -17.045121 0.000000 0.000000 0.000000 0.352908 4.917426 19.699115 2.427532 3.899271 -2.101465 -4.441964 4.977125 -13.286828 2.485519 0.338074 2.831782 3.315186 -0.166093 5.893547 0.000000 0.000000 0.000000 0.679623 12.634273 7.055454 -66.979299 -8.348004 7.054676 -46.762580 -17.802037 0.097311 -2.148711 -6.486836 0.048191 -2.141457 -6.491772 0.000000 0.000000 0.000000 0.000000 0.000000 0.000000 0.000000 -6.337991 -15.647433 2.502375 73.267732 -1.679883 18.615327 174.323705 77.409670 -179.781391 -3.312243 9.123343 0.106978 -3.340045 9.116900 0.000000 0.000000 0.000000 0.000000 0.000000 0.000000 0.000000 
